<?xml version="1.0" encoding="UTF-8" standalone="no"?>
<!DOCTYPE svg PUBLIC "-//W3C//DTD SVG 1.1//EN" "http://www.w3.org/Graphics/SVG/1.1/DTD/svg11.dtd">
<svg xmlns="http://www.w3.org/2000/svg" xmlns:xlink="http://www.w3.org/1999/xlink" version="1.1" width="612pt" height="792pt" viewBox="0 0 612 792">
<g enable-background="new">
<text xml:space="preserve" transform="matrix(1 0 -0 1 0 792)" font-size="17.2154" font-family="CMBX12" font-weight="bold"><tspan y="-751.389" x="227.245 241.87808 254.70357 268.16603 280.87098 305.6956 320.32868 331.96629 345.7386 358.44355 371.28623">ARTEMALBERT</tspan></text>
<text xml:space="preserve" transform="matrix(1 0 -0 1 0 792)" font-size="10.9091" font-family="CMR10"><tspan y="-731.862" x="270.848 275.09165 280.5462 286.00077 291.45533 299.3317 304.78627 310.2408 315.69538 319.3281 324.78266 330.2372 335.69178">(416)912-6532</tspan><tspan y="-715.324" x="87.88599 95.31509 104.40237 109.85692 112.88965 115.92238">Email:</tspan></text>
<text fill="#00aeef" xml:space="preserve" transform="matrix(1 0 -0 1 0 792)" font-size="10.9091" font-family="CMR10"><tspan y="-715.324" x="123.79875 129.2533 133.52967 137.7733 142.61695 151.70423 159.88605 162.91878 169.28969 174.13333 178.4097 182.65334 191.14061 197.20607 202.66062 206.90425 215.99153 221.44608 224.4788 227.51154 230.54427 235.38791 240.84246">artemAlbert@hotmail.com</tspan></text>
<text xml:space="preserve" transform="matrix(1 0 -0 1 0 792)" font-size="10.9091" font-family="CMSY10" font-style="italic"><tspan y="-715.324" x="253.553">&#x22c4;</tspan></text>
<text xml:space="preserve" transform="matrix(1 0 -0 1 0 792)" font-size="10.9091" font-family="CMR10"><tspan y="-715.324" x="262.64399 271.2076 274.24034 278.48399 284.244 290.30946 296.3749">Github:</tspan></text>
<text fill="#00aeef" xml:space="preserve" transform="matrix(1 0 -0 1 0 792)" font-size="10.9091" font-family="CMR10"><tspan y="-715.324" x="304.25126 309.7058 312.73854 316.98219 322.75309 328.81855 334.884 337.91673 342.76036 348.2149 357.3022 362.75675 368.2113 372.48768 376.73133 384.91316 387.94587 394.30589 399.1495 403.42588">github.com/artAlbert</tspan></text>
<text xml:space="preserve" transform="matrix(1 0 -0 1 0 792)" font-size="10.9091" font-family="CMSY10" font-style="italic"><tspan y="-715.324" x="411.26499">&#x22c4;</tspan></text>
<text xml:space="preserve" transform="matrix(1 0 -0 1 0 792)" font-size="10.9091" font-family="CMR10"><tspan y="-715.324" x="420.356 430.6651 435.50874 441.5742 445.87239 448.9051 453.14875 457.99238">Website:</tspan></text>
<text fill="#00aeef" xml:space="preserve" transform="matrix(1 0 -0 1 0 792)" font-size="10.9091" font-family="CMR10"><tspan y="-715.324" x="465.8687 471.32328 475.59965 479.8433 488.02513 491.05784 497.42875 502.27238 506.54875 510.7924 513.82516 518.66879">artAlbert.ca</tspan></text>
<text xml:space="preserve" transform="matrix(1 0 -0 1 0 792)" font-size="10.9091" font-family="CMBX10" font-weight="bold"><tspan y="-686.034" x="28.799988 37.047269 46.669095 56.323648 65.38911 73.821849 82.549129 87.3055 96.73096">EDUCATION</tspan></text>
<path transform="matrix(1,0,0,-1,28.8,112.143009)" stroke-width=".398" stroke-linecap="butt" stroke-miterlimit="10" stroke-linejoin="miter" fill="none" stroke="#000000" d="M 0 0 L 554.401 0 "/>
<text xml:space="preserve" transform="matrix(1 0 -0 1 0 792)" font-size="10.9091" font-family="CMBX10" font-weight="bold"><tspan y="-665.307" x="28.8 38.618188 44.89092 51.861837 58.134569 65.105487 70.2764 79.40731 88.330959 94.429149 99.6546 106.62552 112.37461 115.854618 122.12735 131.48737 137.7601 145.7674 152.73831 158.31287 161.79286 167.54196 174.51288 180.08744 190.01473 193.49472 204.65473 213.72019 219.99292 230.44384 237.41475 244.38567 249.26204 255.01114 264.36027 271.33119 276.90574 280.38575 286.13484 293.10575 298.6803">HonoursBachelorofScienceinComputerScience</tspan></text>
<text xml:space="preserve" transform="matrix(1 0 -0 1 0 792)" font-size="10.9091" font-family="CMR10"><tspan y="-665.307" x="304.43598 311.1014 319.28324 325.3487 328.3814 333.83598 338.6796 342.95597 347.25416 350.28688 354.23597 363.6287 369.08326 376.05418 383.0251 388.47966 392.756 398.21058 403.97059 408.21424 535.19619 540.80349 546.8689 552.9343 561.4107 566.86526 572.31979 577.7743">,UniversityofTorontoJune2021</tspan><tspan y="-651.758" x="28.799988 38.803636 41.836366 47.901826 53.356378 57.632745 65.56366 68.59639 78.29458 88.298229 93.75278 97.996417 104.061878 108.90552 117.9928 123.44735 127.69099 130.72371 135.56735 141.0219 147.69828 153.76374 158.60738 161.6401 166.48375 172.54921 177.39286 182.2365 190.16742 195.62197 201.68743 211.38562 218.81472 224.88018 230.33472 233.36745 236.40018 240.69837">MinorsinMathematicalSciencesandEnglish</tspan></text>
<text xml:space="preserve" transform="matrix(1 0 -0 1 0 792)" font-size="10.9091" font-family="CMBX10" font-weight="bold"><tspan y="-608.919" x="28.799988 41.421819 50.847284 60.261838 74.26912 82.5164 91.996417 100.57097 108.81825 118.2328 122.989177 131.23645 141.05464 150.1201">WORKEXPERIENCE</tspan></text>
<path transform="matrix(1,0,0,-1,28.8,189.258)" stroke-width=".398" stroke-linecap="butt" stroke-miterlimit="10" stroke-linejoin="miter" fill="none" stroke="#000000" d="M 0 0 L 554.401 0 "/>
<text xml:space="preserve" transform="matrix(1 0 -0 1 0 792)" font-size="10.9091" font-family="CMBX10" font-weight="bold"><tspan y="-586.353" x="28.8 40.723649 46.821836 51.99275 57.741846 64.71276 70.9855 77.95641 82.90914 92.83642 100.38551 106.65825 112.930988 116.41099 121.363719 126.24008 129.72008 135.29463 144.43647 153.91648 158.8692 163.82193 170.44376 176.01831 179.4983 185.5965 190.47287">WarehouseLogisticsAssociate</tspan></text>
<text xml:space="preserve" transform="matrix(1 0 -0 1 0 792)" font-size="10.9091" font-family="CMR10"><tspan y="-586.353" x="199.851 208.03282 211.06555 215.9092 221.36374 528.6622 534.1167 539.5712 545.02578 554.11306 561.37857 566.83309 572.2876 577.7421">Alcon2021-2022</tspan></text>
<text xml:space="preserve" transform="matrix(1 0 -0 1 0 792)" font-size="10.9091" font-family="SFRM1095"><tspan y="-566.03" x="41.921007">&#x2022;</tspan></text>
<text xml:space="preserve" transform="matrix(1 0 -0 1 0 792)" font-size="10.9091" font-family="CMR10"><tspan y="-566.03" x="52.800004 60.2291 65.989109 70.83275 75.109119 79.95276 82.98549 87.283679 92.12732 101.82551 105.1637 111.22916 117.29462 122.74917 131.83646 136.6801 142.44011 150.3274 154.57103 163.65831 166.69104 172.7565 177.60015 183.36016 187.60379 190.63652 193.9747 198.82926 205.49472 211.56018 214.59291 220.04746 225.502 231.56746 237.022 241.32019 246.16384 252.8293 258.28385 264.3493 274.0584 278.3566 283.81117 286.84388 292.29844 300.77479 306.84025 311.1166 316.57118 322.63664 325.66935 330.51298 339.60026 347.54209 355.41847 358.45118 362.69483 368.76029 371.793 381.49119 386.94575 389.97846 395.433 400.27665 409.97483 414.2512 420.31666 423.34938 428.193">Exercisedjudgmenttoidentify,diagnose,andsolveproblemswithingivenrules</tspan></text>
<text xml:space="preserve" transform="matrix(1 0 -0 1 0 792)" font-size="10.9091" font-family="SFRM1095"><tspan y="-548.695" x="41.921007">&#x2022;</tspan></text>
<text xml:space="preserve" transform="matrix(1 0 -0 1 0 792)" font-size="10.9091" font-family="CMR10"><tspan y="-548.695" x="52.800004 63.1091 68.56365 72.84002 78.29456 83.13821 92.836399 97.68004 103.13459 106.16732 109.20005 114.6546 121.02552 126.48007 130.75644 136.21099 140.45462 143.48735 148.94191 153.78556 156.81829 166.21103 171.66558 177.73104 187.44014 190.47287 196.53833 202.59288 207.44744 213.80744 218.65108 224.71654 230.782 235.62564 241.38565 245.62929 248.66202 258.06568 263.52024 273.2184 282.3057 286.58207 292.03663 298.10209 303.55665 312.0439 317.49848 324.4694 328.71305 334.1676 338.4658 344.2258 352.1567 355.18943 364.89854 370.3531 373.3858 380.05125 387.62217 393.07673 397.3531 402.19673 408.26219 413.71675 419.7822 424.08039 432.55674 436.8331 442.28767 445.32038 450.164">Workedcollaborativelyandindependentlyonarangeoftasksinallwarehouseroles</tspan></text>
<text xml:space="preserve" transform="matrix(1 0 -0 1 0 792)" font-size="10.9091" font-family="SFRM1095"><tspan y="-531.36" x="41.921007">&#x2022;</tspan></text>
<text xml:space="preserve" transform="matrix(1 0 -0 1 0 792)" font-size="10.9091" font-family="CMR10"><tspan y="-531.36" x="52.800004 61.287286 67.352748 70.385478 74.92366 84.27276 89.1164 94.57095 103.65823 109.723697 114.00006 118.843708 124.909168 129.7528 135.81827 140.11646 143.14919 148.60373 158.25829 163.71283 170.6401 175.48375 180.9383 190.02558 196.09104 201.54558 207.3165 216.6656 220.90924 225.75289 230.29108 236.35654 242.422 247.87654 250.90927 256.36384 261.8184 264.8511 269.69474 277.582 285.45838 288.4911 292.73475 302.38929 307.2329 312.68748 318.44749 322.69114 325.72386 331.48387 337.54933 343.00389 349.06935 356.9566 363.02207 367.8657 373.33116 378.17478 381.2075 386.66206 392.7275 401.8148 406.65843 412.41844 420.25117 424.4948 430.56028 434.83665 440.2912 446.35667 451.81123 461.46577 465.7094 469.98579 475.44035 478.47306 484.5385 487.57124 493.6367 502.68034 508.1349 514.2003 523.85488 528.6985 533.5421 537.8185 542.06216 545.09487 551.1603 556.0039 561.45846 565.7021 568.7348 574.18936 580.25479">Quickcomprehensionofcompanytechnologieswithcontinuousdevelopmentthroughtrainingandcerti&#xfb01;cation.</tspan></text>
<text xml:space="preserve" transform="matrix(1 0 -0 1 0 792)" font-size="10.9091" font-family="CMBX10" font-weight="bold"><tspan y="-511.03599" x="28.800004 35.77092 42.04365 47.214567 56.26912 65.33458 71.956409 78.22914 83.400058 90.37097 93.850978 100.82189 106.92008 111.79645 118.06918">SortCoordinator</tspan></text>
<text xml:space="preserve" transform="matrix(1 0 -0 1 0 792)" font-size="10.9091" font-family="CMR10"><tspan y="-511.03599" x="126.867008 133.08519 137.92884 143.9943 151.42339 528.655 534.10958 539.5641 545.0186 554.1059 561.38229 566.8368 572.2913 577.74588">FedEx2018-2020</tspan></text>
<text xml:space="preserve" transform="matrix(1 0 -0 1 0 792)" font-size="10.9091" font-family="SFRM1095"><tspan y="-490.71199" x="41.92102">&#x2022;</tspan></text>
<text xml:space="preserve" transform="matrix(1 0 -0 1 0 792)" font-size="10.9091" font-family="CMR10"><tspan y="-490.71199" x="52.80002 62.803667 68.25822 74.32368 79.77823 85.23278 90.07642 99.77461 104.01825 110.08371 118.57099 124.02554 128.30191 132.56737 135.6001 140.7601 146.21465 152.88011 158.33466 164.40012 174.09832 178.34195 184.40741 192.8947 198.96016 203.23653 208.98561 213.84017 218.6838 222.982 227.28018 230.31291 236.37837 245.46566 250.9202 257.8911 263.34568 266.3784 270.65476 273.99296 278.26933 283.11296 286.14567 291.60023 297.36024 305.24754 310.7021 316.76756 326.46574 331.9203 336.19667 341.6512 347.71669 353.78215 363.48033 368.32395 373.7785 378.05488 383.50944 392.5967 395.62944 405.33854 414.4258 417.45854 422.30216 427.7567 433.82218 438.6658 442.94218 447.24037 453.30583 456.33854 466.0367 470.31309 475.76765 478.80036">Managedthearrivalandtheprocessingofairfreightandgroundcargoinaleadershiprole</tspan></text>
<text xml:space="preserve" transform="matrix(1 0 -0 1 0 792)" font-size="10.9091" font-family="SFRM1095"><tspan y="-473.37699" x="41.92102">&#x2022;</tspan></text>
<text xml:space="preserve" transform="matrix(1 0 -0 1 0 792)" font-size="10.9091" font-family="CMR10"><tspan y="-473.37699" x="52.80002 60.52366 66.58912 69.62185 72.65458 80.530948 85.37459 90.82914 93.86187 96.8946 102.34915 108.72007 114.17462 118.45099 123.90554 128.14919 131.18192 136.63648 145.11286 149.38922 154.24378 157.2656 162.72014 166.96378 169.9965 175.45105 181.51651 185.8147 191.88016 194.91289 200.97835 208.92018 216.79656 219.82929 224.07292 233.77112 238.61476 242.89113 248.34568 252.64386 256.94206 260.57478 263.91297 269.97843 276.04389 280.8875 285.13117 288.16389 293.61845 299.6839 305.13847 311.8039 316.04756 320.89118 326.34574 335.433 343.37486 347.6185 356.70579 361.5494 367.61488 371.91307 377.97853 382.25489 390.73124 395.57487 404.66215 409.51667 412.54939 417.393 423.153 431.0294 435.27305 440.7276 445.0258 454.41853 459.26216 464.7167 473.804 479.86946 482.90217 487.7458 491.98945 495.02217 500.4767">Builtcollaborativerelationshipswithcross-functionalteamstoensuree&#xfb03;cienttaskcompletion</tspan></text>
<text xml:space="preserve" transform="matrix(1 0 -0 1 0 792)" font-size="10.9091" font-family="SFRM1095"><tspan y="-456.042" x="41.92102">&#x2022;</tspan></text>
<text xml:space="preserve" transform="matrix(1 0 -0 1 0 792)" font-size="10.9091" font-family="CMR10"><tspan y="-456.042" x="52.80002 60.229116 69.31639 75.38185 78.41458 83.563678 89.01822 93.86186 103.57096 109.02551 115.09097 120.545528 123.578258 129.33826 133.5819 136.61463 145.091 151.15647 155.43283 160.88738 166.95284 169.98557 174.82921 187.54923 191.84741 197.30196 200.33469 206.0947 209.12743 215.19289 224.28017 228.58927 234.33837 237.3711 240.40383 243.43656 251.37839 255.62203 264.7093 270.77476 275.05113 278.08384 283.5384 287.81477 290.84748 295.09114 298.12385 302.96748 311.44383 316.89839 322.96385 332.67295 336.9166 346.00389 350.28025 355.12388 359.42207 364.87663 367.90934 373.3639 381.85118 384.88389 389.18208 393.48027 399.54573 404.38935 412.32026 415.35298 425.05116 434.14936 437.48756 442.9421 447.2403 455.11668 461.18214 466.6367 471.48033 476.32395 486.02214 490.86576 496.62577 502.38578 505.4185 509.69486 515.1494 521.21487 530.3021 535.14578 540.9166">Employedanalyticproblemsolvingskillstoprioritizeandtoresolveissuesinafastpacedenvironment</tspan></text>
<text xml:space="preserve" transform="matrix(1 0 -0 1 0 792)" font-size="10.9091" font-family="CMBX10" font-weight="bold"><tspan y="-426.75199" x="28.800019 35.770936 45.600034 50.3564 57.905496 65.45459">SKILLS</tspan></text>
<path transform="matrix(1,0,0,-1,28.8,371.425)" stroke-width=".398" stroke-linecap="butt" stroke-miterlimit="10" stroke-linejoin="miter" fill="none" stroke="#000000" d="M 0 0 L 554.401 0 "/>
<text xml:space="preserve" transform="matrix(1 0 -0 1 0 792)" font-size="10.9091" font-family="CMBX10" font-weight="bold"><tspan y="-404.117" x="28.8 36.3491 42.447286 49.4182 55.690935 62.66185 68.76004 75.032779 80.78187">Languages</tspan></text>
<text xml:space="preserve" transform="matrix(1 0 -0 1 0 792)" font-size="10.9091" font-family="CMR10"><tspan y="-404.117" x="123.020008 130.4491 136.2091 140.45275 146.5182 151.97275 158.03821 164.70368 172.8855 180.76187 190.76552 197.58371 204.24918 212.13646 218.19101 224.25647 230.93285 238.05649 243.51103 247.80922 252.05286 257.50743 261.78379 266.6274 272.69288 281.18016 287.99833 294.66377 300.27104 305.42015 310.58015 316.0347 322.10017 326.9438 331.22016 334.25288 340.31834 344.56199 351.22743 356.8347 361.9838 367.1438 372.59837 379.2638">Python,HTML,CSS,PostgreSQL,JavaScript,Java,C</tspan></text>
<text xml:space="preserve" transform="matrix(1 0 -0 1 0 792)" font-size="10.9091" font-family="CMBX10" font-weight="bold"><tspan y="-390.568" x="28.800004 35.650918 40.82183 46.920019 57.370935 63.12003 71.8364 78.10914 83.28005 89.90188">Frameworks</tspan></text>
<text xml:space="preserve" transform="matrix(1 0 -0 1 0 792)" font-size="10.9091" font-family="CMR10"><tspan y="-390.568" x="123.020008 131.35456 134.69274 140.14728 146.21274 151.66728 157.12183 163.7873 170.91094 173.94367 179.39821 183.6964 189.4564 196.13278 204.16188 209.00553 214.46007 219.30371">Django,Flask,React</tspan></text>
<text xml:space="preserve" transform="matrix(1 0 -0 1 0 792)" font-size="10.9091" font-family="CMBX10" font-weight="bold"><tspan y="-377.018" x="28.800004 36.48001 43.101835 49.374567 52.85457">Tools</tspan></text>
<text xml:space="preserve" transform="matrix(1 0 -0 1 0 792)" font-size="10.9091" font-family="CMR10"><tspan y="-377.018" x="123.020008 131.58365 134.61638 138.86002 145.52548 152.34368 155.3764 161.13642 167.20188 172.96189 179.63826 187.82009 197.51828 205.39466 211.15465 217.22011 222.06375 228.72922 238.73287 243.88196 249.34743 254.19107 260.25654 266.92198 272.52925 280.71107 286.77653 289.80924 294.0529 300.71833 307.68925 318.9038 328.602 332.84565 340.87474 349.2093 355.27476 361.9402 368.75837 371.79109 377.24565 383.01655 387.2602 391.55839 397.01295 400.04566 403.07838 409.7438 417.92564 427.0129 433.07838 436.11109 439.1438 442.482 448.242 452.48567 459.1511 467.48567 473.24568 477.78385 483.2384 488.08204">Git,Linux,VSCode,Maven,JUnit,AWS(RDS,Lightsail,Amplify),Docker</tspan></text>
<text xml:space="preserve" transform="matrix(1 0 -0 1 0 792)" font-size="10.9091" font-family="CMBX10" font-weight="bold"><tspan y="-349.92" x="28.800004 35.77092 42.04365 45.872747 54.9273 61.898218 68.52004 72.000049 75.48005 78.96005">SoftSkills</tspan></text>
<text xml:space="preserve" transform="matrix(1 0 -0 1 0 792)" font-size="10.9091" font-family="CMR10"><tspan y="-349.92" x="123.020008 129.99092 134.83457 140.28911 149.07094 156.64186 162.0964 166.37277 172.13278 178.80916 186.68553 192.14008 195.1728 198.19463 203.64917 210.02008 215.47463 219.75099 225.20554 229.44918 232.4819 237.93645 244.0019 250.66738 258.09648 261.12919 266.58375 272.6492 278.71467 281.74739 287.81285 293.2674 298.72196 307.20924 311.4856 316.94017 322.3947 328.46018 331.4929 336.33653 341.79109 346.03474 349.06745 354.522 360.58747 367.2529 374.52928 379.3729 383.64927 389.71473 395.16929 398.202 403.65657 413.96568 418.24205 421.27476 425.5184 429.76206 434.60569 444.30387 452.18025 457.6348 466.72209 475.5039 481.56938 487.63484 490.66755 495.51118 500.96574 505.20939 508.2421 513.69668 519.7621">Teamwork,Collaboration,Planning/Organization,Verbal/WrittenCommunication,</tspan><tspan y="-336.371" x="123.020008 131.20183 137.26729 142.72183 148.7873 153.03093 158.48548 164.55094 167.58367 170.6164 173.64913 177.58731 182.44187 189.10733 197.28916 202.1328 206.97644 212.43099 218.49645 224.25646 228.50009 233.95464 240.0201 243.05283 246.08556 249.11829 253.05648 257.911 264.57646 272.911 278.36558 282.60923 288.06379 291.6965 297.76197 302.03834 305.07106 310.5256 315.36924 325.07835 333.4129 338.25654 343.10017 346.13288 350.43107 353.46379 358.91835 368.61653 378.62016 384.0747 389.83473 392.86744 398.9329 404.38746 411.0529 419.08198 423.9256 428.2238 433.0674 438.52198 442.79835 447.3474 453.41288 460.0783 467.95469 472.23106 477.07469 482.52925 486.7729 489.8056 495.5656 498.59834 502.53654 507.39109">Adaptability,Accountability,Data-drivenDecisionMaking,Research,Creativity,</tspan><tspan y="-322.822" x="123.020008 130.89638 136.35092 142.11093 146.35457 149.3873 155.14731 161.21277 166.66732 172.73278 180.6746 187.4928 192.33644 197.79099 202.06735 208.13282 211.16555 217.231 222.68555 228.14009 236.47464 241.31829 246.77285 251.61649 254.64922 260.10377 266.16923 275.2565 280.10014 285.86015 290.1038 296.76924 303.5874 308.43104 313.8856 319.95106 324.79469 329.07106 333.36924 339.4347 342.4674 352.1765 357.63108 363.69654 373.3947 377.3329 383.39836 389.4638 395.52928 400.3729 406.43836 411.28199 416.1256 422.79106 430.97288 437.03834 443.1038 447.38017 452.83473 458.28929 462.82746 468.8929 474.34748 480.41294 483.44566 486.47837 489.51109 493.44929">ContinuousLearning/Development,LeadershipandIn&#xfb02;uence,Approachability</tspan></text>
<text xml:space="preserve" transform="matrix(1 0 -0 1 0 792)" font-size="10.9091" font-family="CMBX10" font-weight="bold"><tspan y="-291.45899" x="28.800004 37.374559 46.44002 55.865488 62.345495 70.59277 79.65823 88.38551">PROJECTS</tspan></text>
<path transform="matrix(1,0,0,-1,28.8,506.718)" stroke-width=".398" stroke-linecap="butt" stroke-miterlimit="10" stroke-linejoin="miter" fill="none" stroke="#000000" d="M 0 0 L 554.401 0 "/>
<text xml:space="preserve" transform="matrix(1 0 -0 1 0 792)" font-size="10.9091" font-family="CMBX10" font-weight="bold"><tspan y="-268.894" x="28.8 40.723649 46.472745 52.57093 57.447298 64.41821 70.167308 79.5164 89.13823 94.30914 100.058238 105.01096 109.96369 115.71278">WeatherDresser</tspan></text>
<text xml:space="preserve" transform="matrix(1 0 -0 1 0 792)" font-size="10.9091" font-family="CMR10"><tspan y="-268.894" x="124.507 131.9361 137.6961 141.93975 148.0052 153.45975 159.5252 166.19068 174.52523 177.8634 183.31795 189.3834 194.83795 200.2925 206.95796 215.13979 223.01616 233.0198 239.838 246.51438 254.39075 260.4562 266.52168 273.1871 281.36894 286.21257 290.48893 295.94349 301.7035">Python,Django,HTML,CSS,Heroku</tspan></text>
<text fill="#00aeef" xml:space="preserve" transform="matrix(1 0 -0 1 0 792)" font-size="10.9091" font-family="CMR10"><tspan y="-268.894" x="547.1146 555.6783 558.711 562.95468 571.1365 577.2019">GitHub</tspan></text>
<text xml:space="preserve" transform="matrix(1 0 -0 1 0 792)" font-size="10.9091" font-family="SFRM1095"><tspan y="-248.57" x="41.921007">&#x2022;</tspan></text>
<text xml:space="preserve" transform="matrix(1 0 -0 1 0 792)" font-size="10.9091" font-family="CMR10"><tspan y="-248.57" x="52.800004 63.1091 68.56365 72.84002 78.29456 83.13821 94.02549 98.86913 101.90186 107.356418 111.6546 116.498249 119.530979 130.1019 135.55644 141.6219 152.50919 157.35283 162.80738 168.56739 172.81102 175.84375 181.60376 187.66922 193.12377 199.18923 203.48741 206.52014 217.10198 224.97835 228.01108 232.25472 243.142 247.38564 253.4511 263.11656 267.96018 270.9929 274.0256 278.86924 284.62925 293.6947 297.92747 303.99293 308.2693 313.72386 319.7893 325.24388 331.30934 336.7639 342.82936 351.8948 357.96028 362.8039 368.25846 373.10209 376.1348 381.58937 387.65483 396.7421 401.58573 407.34574 416.4112 420.65486 430.9312 435.77485 440.0512 444.89485 450.3494 454.59306 464.25849 469.71305 480.6003 486.05488 492.10945 496.3531 499.3858 508.47309 513.9276 516.9603 525.10946 531.17489 534.2076 539.6621 550.5494 553.5821 562.6694 568.7348 574.18936 579.03298">Workedcloselyandcontinuouslywiththeclientthroughoutdevelopmenttocreateanoptimal,highimpact</tspan><tspan y="-235.02101" x="52.800004 59.170919 64.01456 68.290927 72.58911 78.04366 84.10912 89.563678 96.22913 100.52732 105.98187 109.0146 115.08006 119.3237 122.35643 127.81098 133.87644">personalsolution.</tspan></text>
<text xml:space="preserve" transform="matrix(1 0 -0 1 0 792)" font-size="10.9091" font-family="SFRM1095"><tspan y="-217.686" x="41.921007">&#x2022;</tspan></text>
<text xml:space="preserve" transform="matrix(1 0 -0 1 0 792)" font-size="10.9091" font-family="CMR10"><tspan y="-217.686" x="52.800004 60.8291 65.672748 69.91638 74.19275 77.22548 82.06912 87.52367 92.36731 102.07641 107.53096 113.58551 123.29461 129.36006 133.63643 139.38552 144.24007 149.08371 153.3819 157.68009 162.52373 172.22193 177.82921 183.89467 192.38195 204.1965 210.26197 215.7165 219.96015 229.05834 232.3856 236.66197 242.11652 254.84745 263.93473 268.17839 274.24385 277.27656 281.55293 291.2511 297.31657 302.77113 307.0475 310.9857 320.38935 328.57118 336.00028 343.57118 346.90937 352.36393 360.273 363.6112 367.88758 373.34214 379.10215 386.98945 391.83308 397.89854 407.5967 413.66218 416.6949 420.99308 427.05854 430.09126 435.24037 440.0949">RetrievedandprocessedJSONdatafromathirdpartyAPIforfrontenddisplay.</tspan></text>
<text xml:space="preserve" transform="matrix(1 0 -0 1 0 792)" font-size="10.9091" font-family="SFRM1095"><tspan y="-200.35102" x="41.921007">&#x2022;</tspan></text>
<text xml:space="preserve" transform="matrix(1 0 -0 1 0 792)" font-size="10.9091" font-family="CMR10"><tspan y="-200.35102" x="52.800004 59.770917 64.04729 69.50184 75.5673 79.865489 82.89822 88.35277 92.596408 97.44005 107.13824 115.32006 122.890979 131.97826 137.73825 142.27645 148.03646 154.10192 160.16738 168.1092 171.44739 175.72376 181.1783 193.89832 202.23287 206.50923 209.54196 215.60742 221.67288 224.70561 233.18199 236.21472 241.97473 246.21837 255.31656 263.49839 271.37477 281.3784 291.82929 297.28385 303.3493 313.0475 320.92387 326.98933 336.6875 339.7202 344.88023 350.33479 355.78935 361.8548 366.09846 370.39665">TranslatedUImockupsfromDribbleintoHTMLandCSSlayouts.</tspan></text>
<text xml:space="preserve" transform="matrix(1 0 -0 1 0 792)" font-size="10.9091" font-family="SFRM1095"><tspan y="-183.01602" x="41.921007">&#x2022;</tspan></text>
<text xml:space="preserve" transform="matrix(1 0 -0 1 0 792)" font-size="10.9091" font-family="CMR10"><tspan y="-183.01602" x="52.800004 56.73819 65.82547 71.89093 74.92366 79.7673 88.85458 93.69823 99.45823 103.701869 108.54551 118.25461 127.34189 136.42917 141.88372 147.94918 150.9819 154.01464 162.49102 166.76738 171.61103 175.90921 182.28012 187.73467 193.80013 198.09832 201.13105 206.5856 215.07289 221.13835 225.982 230.28018 233.31291 238.76746 244.83292">Implementedamobileresponsivedesign.</tspan></text>
<text xml:space="preserve" transform="matrix(1 0 -0 1 0 792)" font-size="10.9091" font-family="CMBX10" font-weight="bold"><tspan y="-162.69202" x="28.800004 35.77092 40.647287 46.745473 51.916387 56.792757 65.923679 78.89459 82.374599 87.25096 98.41097 106.65825 113.629169 120.60008 129.731 142.70192 146.18192 151.05829">StartsWithEndsWith</tspan></text>
<text xml:space="preserve" transform="matrix(1 0 -0 1 0 792)" font-size="10.9091" font-family="CMR10"><tspan y="-162.69202" x="161.658 169.0871 174.8471 179.09075 185.1562 190.61075 196.67621 203.34168 210.46532 213.49805 218.95259 223.25078 229.01079 235.67626 241.28354 246.44355 251.59264 257.04719 263.11265 267.95628 272.23265 275.26536 281.3308 285.57447 292.2399 300.26899 305.1126 310.56718 315.4108 319.65446 326.3308 333.30174 344.5163 354.21449 358.45814 366.4872 374.82179 380.88725 387.55268 394.37086 397.40357 402.85813 408.61814 412.8618 417.15998 422.61454 425.64726 428.67997 435.35633 443.53816 452.62544 458.6909 461.7236 464.75633 468.08363 473.84364">Python,Flask,JavaScript,React,AWS(RDS,Lightsail,Amplify)</tspan></text>
<text fill="#00aeef" xml:space="preserve" transform="matrix(1 0 -0 1 0 792)" font-size="10.9091" font-family="CMR10"><tspan y="-162.69202" x="547.131 555.69467 558.72738 562.971 571.15286 577.21829">GitHub</tspan></text>
<text xml:space="preserve" transform="matrix(1 0 -0 1 0 792)" font-size="10.9091" font-family="SFRM1095"><tspan y="-142.36801" x="41.921007">&#x2022;</tspan></text>
<text xml:space="preserve" transform="matrix(1 0 -0 1 0 792)" font-size="10.9091" font-family="CMR10"><tspan y="-142.36801" x="52.800004 56.73819 65.82547 71.89093 74.92366 79.7673 88.85458 93.69823 99.45823 103.701869 108.54551 118.25461 127.34189 130.68007 136.74553 139.77826 146.44373 150.74192 154.98555 160.4401 164.97829 174.38195 179.83649 185.90195 191.9674 195.00014 198.03287 202.87651 208.33106 212.57469 215.60742 221.06197 230.76016 236.82563 241.12381 244.15654 250.222 259.30928 266.43293 269.46565 274.9202 279.21839 284.9784 291.64384 299.6729 304.52745 309.982 314.82563 319.06929 325.7347 331.18928 337.25474 346.9529 354.07658 359.53114 363.8293 368.07298 373.52754 377.8039 382.64753 388.71299 397.20027 404.01844">ImplementedafullstackapplicationusingFlask,React,andPostgreSQL.</tspan></text>
<text xml:space="preserve" transform="matrix(1 0 -0 1 0 792)" font-size="10.9091" font-family="SFRM1095"><tspan y="-125.03301" x="41.921007">&#x2022;</tspan></text>
<text xml:space="preserve" transform="matrix(1 0 -0 1 0 792)" font-size="10.9091" font-family="CMR10"><tspan y="-125.03301" x="52.800004 60.676374 64.95274 69.79639 75.25094 79.494579 84.33822 94.03641 99.49096 109.20006 117.38188 124.81098 132.3819 138.44736 143.9019 148.4401 154.2001 157.83284 162.67649 168.74195 178.44014 182.68378 191.78197 196.62561 202.38562 207.22927 212.0729 218.13837 222.382 230.85839 236.92385 242.37839 246.62203 252.07657 258.14204 263.5966 267.89479 276.38206 280.68025 285.52388 290.97843 295.2548 299.79298 305.85844 310.70207 318.63298 324.08753 330.15299 339.85118 344.16026 349.00389 353.28025 358.7348 367.21116 371.4548 377.52027 385.9966 390.27299 395.1166 399.4148 405.48027 408.51298 412.75663 420.69847 423.73118 433.42936 439.03663 445.10209 453.58937 461.77119">CreatedanAPIback-endtoexecutedatabasesearchesandservetheresultsinJSON.</tspan></text>
<text xml:space="preserve" transform="matrix(1 0 -0 1 0 792)" font-size="10.9091" font-family="SFRM1095"><tspan y="-107.69801" x="41.921007">&#x2022;</tspan></text>
<text xml:space="preserve" transform="matrix(1 0 -0 1 0 792)" font-size="10.9091" font-family="CMR10"><tspan y="-107.69801" x="52.800004 60.676374 66.13092 71.89092 76.13456 81.58911 84.62184 90.6873 95.530948 99.80731 102.84004 107.683689 112.52733 122.22552 126.469158 132.5346 141.0219 148.14554 151.17827 156.63282 160.931 170.32375 176.3892 181.84375 186.38195 192.14196 195.77469 200.61833 206.68379 216.3929 222.45836 226.75655 229.78928 235.85474 244.94202 253.27657 259.03657 263.57475 269.0293 273.87294 281.782 287.23658 293.30204 303.01115 309.0766 313.92024 319.9857 323.0184 328.1675 333.62208 338.4657 348.16389 351.1966 359.0839 366.96028 369.99299 374.23664 383.9348 392.11665 401.20393 406.65849 411.5021 416.95668 426.65486 433.47303 436.50575 441.9603 447.7312 451.97486 456.27305 461.7276 464.7603 471.42576 477.4912 481.7894 484.8221 490.88758 499.97486 504.2185 510.28398 518.7604 525.73129 536.9458 546.65487 554.5312 561.34939 565.28756">ContainerizedtheFlaskback-endusingDockeranddeployeditwithAmazonLightsailusingtheAWSCLI.</tspan></text>
<text xml:space="preserve" transform="matrix(1 0 -0 1 0 792)" font-size="10.9091" font-family="SFRM1095"><tspan y="-90.363018" x="41.921007">&#x2022;</tspan></text>
<text xml:space="preserve" transform="matrix(1 0 -0 1 0 792)" font-size="10.9091" font-family="CMR10"><tspan y="-90.363018" x="52.800004 61.134557 65.978199 72.043659 78.109119 83.56367 89.01822 93.86186 103.56005 106.59278 110.89097 115.189159 121.254619 126.09826 134.04009 137.07282 146.77101 154.64739 160.71285 164.98921 170.44376 179.53104 184.37468">DebuggedissuesinChrome.</tspan></text>
</g>
</svg>
